<svg width="15" height="15" viewBox="0 0 15 15" fill="none" xmlns="http://www.w3.org/2000/svg">
<g id="Nav &#226;&#134;&#146; List &#226;&#134;&#146; Item &#226;&#134;&#146; Link">
<path id="Vector" d="M10.3039 6.254C10.3039 6.31933 10.2759 6.37533 10.2199 6.422L6.57986 10.076C6.53319 10.1227 6.47253 10.146 6.39786 10.146C6.32319 10.146 6.26719 10.1227 6.22986 10.076L2.58986 6.422C2.53386 6.37533 2.50586 6.31933 2.50586 6.254C2.50586 6.18866 2.53386 6.128 2.58986 6.072L2.98186 5.68C3.02853 5.624 3.08453 5.596 3.14986 5.596C3.21519 5.596 3.27586 5.624 3.33186 5.68L6.39786 8.746L9.47786 5.68C9.52453 5.624 9.58519 5.596 9.65986 5.596C9.73453 5.596 9.79053 5.624 9.82786 5.68L10.2199 6.072C10.2759 6.11866 10.3039 6.17933 10.3039 6.254Z" fill="#152E33"/>
</g>
</svg>
