<svg width="17" height="16" viewBox="0 0 17 16" fill="none" xmlns="http://www.w3.org/2000/svg">
<g id="List &#226;&#134;&#146; Item &#226;&#134;&#146; Link">
<path id="Vector" d="M10.6702 7.99977C10.6702 7.37044 10.4515 6.83177 10.0142 6.38377C9.57685 5.93577 9.03818 5.71177 8.39818 5.71177C7.75818 5.71177 7.21951 5.93577 6.78218 6.38377C6.34485 6.83177 6.12085 7.37044 6.11018 7.99977C6.09951 8.6291 6.32351 9.16777 6.78218 9.61577C7.24085 10.0638 7.77951 10.2878 8.39818 10.2878C9.01685 10.2878 9.55551 10.0638 10.0142 9.61577C10.4728 9.16777 10.6915 8.6291 10.6702 7.99977ZM11.9022 7.99977C11.9022 8.97044 11.5608 9.80244 10.8782 10.4958C10.1955 11.1891 9.36885 11.5304 8.39818 11.5198C7.42751 11.5091 6.59551 11.1678 5.90218 10.4958C5.20885 9.82377 4.86751 8.99177 4.87818 7.99977C4.88885 7.00777 5.23018 6.17577 5.90218 5.50377C6.57418 4.83177 7.40618 4.49044 8.39818 4.47977C9.39018 4.4691 10.2168 4.81044 10.8782 5.50377C11.5395 6.1971 11.8808 7.0291 11.9022 7.99977ZM12.8782 4.33577C12.8782 4.55977 12.7982 4.75177 12.6382 4.91177C12.4782 5.07177 12.2808 5.15177 12.0462 5.15177C11.8115 5.15177 11.6195 5.07177 11.4702 4.91177C11.3208 4.75177 11.2408 4.55977 11.2302 4.33577C11.2195 4.11177 11.2995 3.91977 11.4702 3.75977C11.6408 3.59977 11.8328 3.51977 12.0462 3.51977C12.2595 3.51977 12.4568 3.59977 12.6382 3.75977C12.8195 3.91977 12.8995 4.11177 12.8782 4.33577ZM8.39818 2.36777C8.35551 2.36777 8.12618 2.36777 7.71018 2.36777H6.76618C6.55285 2.36777 6.26485 2.37844 5.90218 2.39977C5.53951 2.4211 5.23551 2.44777 4.99018 2.47977C4.74485 2.51177 4.53151 2.57044 4.35018 2.65577C4.05151 2.7731 3.79018 2.94377 3.56618 3.16777C3.34218 3.39177 3.16618 3.6531 3.03818 3.95177C2.97418 4.12244 2.92085 4.33577 2.87818 4.59177C2.83551 4.84777 2.80351 5.1571 2.78218 5.51977C2.76085 5.88244 2.75551 6.1651 2.76618 6.36777C2.77685 6.57044 2.77685 6.8851 2.76618 7.31177C2.75551 7.73844 2.75551 7.96777 2.76618 7.99977C2.77685 8.03177 2.77685 8.2611 2.76618 8.68777C2.75551 9.11444 2.75551 9.4291 2.76618 9.63177C2.77685 9.83444 2.78218 10.1171 2.78218 10.4798C2.78218 10.8424 2.81418 11.1518 2.87818 11.4078L3.03818 12.0478C3.16618 12.3464 3.34218 12.6078 3.56618 12.8318C3.79018 13.0558 4.05151 13.2264 4.35018 13.3438C4.52085 13.4078 4.73418 13.4664 4.99018 13.5198C5.24618 13.5731 5.55018 13.5998 5.90218 13.5998C6.25418 13.5998 6.54218 13.6104 6.76618 13.6318C6.99018 13.6531 7.30485 13.6531 7.71018 13.6318C8.11551 13.6104 8.34485 13.6104 8.39818 13.6318C8.45151 13.6531 8.67551 13.6531 9.07018 13.6318C9.46485 13.6104 9.77951 13.6104 10.0142 13.6318C10.2488 13.6531 10.5368 13.6424 10.8782 13.5998C11.2195 13.5571 11.5288 13.5304 11.8062 13.5198C12.0835 13.5091 12.2915 13.4504 12.4302 13.3438C12.7288 13.2264 12.9955 13.0558 13.2302 12.8318C13.4648 12.6078 13.6355 12.3464 13.7422 12.0478C13.8062 11.8771 13.8595 11.6638 13.9022 11.4078C13.9448 11.1518 13.9768 10.8424 13.9982 10.4798C14.0195 10.1171 14.0248 9.83444 14.0142 9.63177C14.0035 9.4291 14.0035 9.11444 14.0142 8.68777C14.0248 8.2611 14.0248 8.03177 14.0142 7.99977C14.0035 7.96777 14.0035 7.73844 14.0142 7.31177C14.0248 6.8851 14.0248 6.57044 14.0142 6.36777C14.0035 6.1651 13.9982 5.88244 13.9982 5.51977C13.9982 5.1571 13.9662 4.84777 13.9022 4.59177L13.7422 3.95177C13.6248 3.6531 13.4542 3.39177 13.2302 3.16777C13.0062 2.94377 12.7395 2.7731 12.4302 2.65577C12.2595 2.59177 12.0515 2.5331 11.8062 2.47977C11.5608 2.42644 11.2515 2.39977 10.8782 2.39977C10.5048 2.39977 10.2168 2.3891 10.0142 2.36777C9.81151 2.34644 9.49685 2.34644 9.07018 2.36777C8.64351 2.3891 8.41951 2.3891 8.39818 2.36777ZM15.2462 7.99977C15.2462 9.3651 15.2302 10.3091 15.1982 10.8318C15.1448 12.0691 14.7768 13.0291 14.0942 13.7118C13.4115 14.3944 12.4568 14.7624 11.2302 14.8158C10.6968 14.8478 9.75285 14.8638 8.39818 14.8638C7.04351 14.8638 6.09951 14.8478 5.56618 14.8158C4.32885 14.7518 3.36885 14.3838 2.68618 13.7118C2.00351 13.0398 1.63551 12.0798 1.58218 10.8318C1.55018 10.3091 1.53418 9.3651 1.53418 7.99977C1.53418 6.63444 1.55018 5.69044 1.58218 5.16777C1.63551 3.93044 2.00351 2.97044 2.68618 2.28777C3.36885 1.6051 4.32885 1.2371 5.56618 1.18377C6.08885 1.15177 7.03285 1.13577 8.39818 1.13577C9.76351 1.13577 10.7075 1.15177 11.2302 1.18377C12.4675 1.24777 13.4222 1.61577 14.0942 2.28777C14.7662 2.95977 15.1342 3.91977 15.1982 5.16777C15.2302 5.69044 15.2462 6.63444 15.2462 7.99977Z" fill="white" fill-opacity="0.8"/>
</g>
</svg>
