<svg width="21" height="20" viewBox="0 0 21 20" fill="none" xmlns="http://www.w3.org/2000/svg">
<g id="Icon" clip-path="url(#clip0_38_256)">
<path id="Vector" d="M7.26416 0.585938C3.70947 0.585938 0.779785 3.47656 0.779785 7.07031C0.779785 12.1875 6.56104 18.9062 6.83447 19.2188L7.26416 19.7266L7.69385 19.2188C7.96729 18.9062 13.7485 12.1875 13.7485 7.07031C13.7485 3.47656 10.8188 0.585938 7.26416 0.585938ZM7.26416 17.8906C5.89697 16.2109 1.95166 10.9766 1.95166 7.07031C1.95166 4.14062 4.33447 1.75781 7.26416 1.75781C10.1938 1.75781 12.5767 4.14062 12.5767 7.07031C12.5767 10.9766 8.63135 16.2109 7.26416 17.8906ZM7.26416 3.71094C5.31104 3.71094 3.74854 5.27344 3.74854 7.22656C3.74854 9.17969 5.31104 10.7422 7.26416 10.7422C9.21729 10.7422 10.7798 9.17969 10.7798 7.22656C10.7798 5.27344 9.21729 3.71094 7.26416 3.71094ZM7.26416 9.57031C5.9751 9.57031 4.92041 8.51562 4.92041 7.22656C4.92041 5.9375 5.9751 4.88281 7.26416 4.88281C8.55322 4.88281 9.60791 5.9375 9.60791 7.22656C9.60791 8.51562 8.55322 9.57031 7.26416 9.57031Z" fill="#878FB9"/>
</g>
<defs>
<clipPath id="clip0_38_256">
<rect width="20" height="20" fill="white" transform="matrix(1 0 0 -1 0.779785 20)"/>
</clipPath>
</defs>
</svg>
