<svg width="21" height="20" viewBox="0 0 21 20" fill="none" xmlns="http://www.w3.org/2000/svg">
<g id="Icon" clip-path="url(#clip0_38_259)">
<path id="Vector" d="M19.5693 9.53125C19.374 4.21875 15.5068 0 10.7803 0C6.05371 0 2.18652 4.21875 1.99121 9.53125C1.28809 9.76562 0.780273 10.3906 0.780273 11.1719V15.8984C0.780273 16.8359 1.56152 17.6562 2.53809 17.6562H4.2959V16.4844H5.46777V10.5859H4.2959V9.41406H3.16309C3.43652 4.80469 6.71777 1.17188 10.7803 1.17188C14.8428 1.17188 18.124 4.80469 18.3975 9.41406H17.2646V10.5859H16.0928V16.4844H17.2646V17.6562H19.0225C19.999 17.6562 20.7803 16.8359 20.7803 15.8984V11.1719C20.7803 10.3906 20.2725 9.76562 19.5693 9.53125ZM3.12402 16.4844H2.53809C2.22559 16.4844 1.95215 16.2109 1.95215 15.8984V11.1719C1.95215 10.8594 2.22559 10.5859 2.53809 10.5859H3.12402V16.4844ZM19.6084 15.8984C19.6084 16.2109 19.335 16.4844 19.0225 16.4844H18.4365V10.5859H19.0225C19.335 10.5859 19.6084 10.8594 19.6084 11.1719V15.8984Z" fill="#878FB9"/>
</g>
<defs>
<clipPath id="clip0_38_259">
<rect width="20" height="20" fill="white" transform="matrix(1 0 0 -1 0.780273 20)"/>
</clipPath>
</defs>
</svg>
