<svg width="16" height="16" viewBox="0 0 16 16" fill="none" xmlns="http://www.w3.org/2000/svg">
<g id="Icon" clip-path="url(#clip0_38_21)">
<path id="Vector" d="M12.1797 9.785C11.8797 9.465 11.5272 9.305 11.1222 9.305C10.7172 9.305 10.3547 9.465 10.0347 9.785L9.02972 10.79L8.69972 10.61C8.58972 10.56 8.51472 10.52 8.47472 10.49C7.53472 9.88 6.66472 9.09 5.86472 8.12C5.47472 7.61 5.18972 7.16 5.00972 6.77C5.24972 6.56 5.49472 6.32 5.74472 6.05L6.01472 5.78C6.34472 5.44 6.50972 5.0725 6.50972 4.6775C6.50972 4.2825 6.34472 3.92 6.01472 3.59L5.14472 2.72C5.01472 2.59 4.91972 2.49 4.85972 2.42L4.70972 2.27C4.51972 2.07 4.36972 1.925 4.25972 1.835C3.94972 1.525 3.59972 1.37 3.20972 1.37C2.81972 1.37 2.45972 1.525 2.12972 1.835H2.11472L1.03472 2.93C0.634724 3.33 0.409724 3.82 0.359724 4.4C0.289724 5.07 0.424724 5.85 0.764724 6.74C1.01472 7.43 1.33722 8.105 1.73222 8.765C2.12722 9.425 2.60972 10.1 3.17972 10.79C4.57972 12.45 6.23472 13.745 8.14472 14.675C8.59472 14.895 9.01472 15.065 9.40472 15.185C9.93472 15.365 10.4447 15.47 10.9347 15.5H11.1297C11.8697 15.5 12.4797 15.24 12.9597 14.72V14.705C13.0497 14.595 13.1947 14.44 13.3947 14.24L13.5147 14.12C13.6447 14.01 13.7847 13.875 13.9347 13.715C14.2547 13.375 14.4147 13.005 14.4147 12.605C14.4147 12.205 14.2497 11.85 13.9197 11.54L12.1797 9.785ZM13.3197 13.13C13.2697 13.19 13.1847 13.275 13.0647 13.385L12.9297 13.52C12.6997 13.73 12.4947 13.94 12.3147 14.15C12.0147 14.48 11.6197 14.645 11.1297 14.645H10.9797C10.2497 14.595 9.42972 14.35 8.51972 13.91C6.70972 13.03 5.14972 11.81 3.83972 10.25C3.29972 9.6 2.84472 8.9675 2.47472 8.3525C2.10472 7.7375 1.79972 7.105 1.55972 6.455C1.40972 6.045 1.30722 5.6825 1.25222 5.3675C1.19722 5.0525 1.18472 4.75 1.21472 4.46C1.24472 4.08 1.38972 3.77 1.64972 3.53L2.72972 2.45C2.87972 2.3 3.03722 2.225 3.20222 2.225C3.36722 2.225 3.52472 2.3 3.67472 2.45C3.76472 2.53 3.88972 2.655 4.04972 2.825L4.34972 3.125C4.43972 3.205 4.50472 3.27 4.54472 3.32L5.41472 4.19C5.74472 4.51 5.74472 4.835 5.41472 5.165C5.35472 5.235 5.26472 5.33 5.14472 5.45C4.79472 5.8 4.52972 6.055 4.34972 6.215L4.33472 6.23C4.13472 6.43 4.07972 6.67 4.16972 6.95V6.98C4.38972 7.5 4.73472 8.055 5.20472 8.645C6.07472 9.725 7.00972 10.58 8.00972 11.21L8.48972 11.465C8.59972 11.515 8.67472 11.555 8.71472 11.585L8.75972 11.615C8.87972 11.665 8.97972 11.69 9.05972 11.69C9.23972 11.69 9.40472 11.615 9.55472 11.465L10.6347 10.385C10.7947 10.225 10.9497 10.145 11.0997 10.145C11.2497 10.145 11.4047 10.225 11.5647 10.385L13.3197 12.14C13.6397 12.45 13.6397 12.78 13.3197 13.13ZM8.42972 4.07C9.27972 4.21 10.0072 4.5825 10.6122 5.1875C11.2172 5.7925 11.5997 6.525 11.7597 7.385C11.7697 7.485 11.8147 7.57 11.8947 7.64C11.9747 7.71 12.0697 7.745 12.1797 7.745L12.2547 7.73C12.3647 7.71 12.4547 7.6525 12.5247 7.5575C12.5947 7.4625 12.6197 7.355 12.5997 7.235C12.5197 6.735 12.3622 6.26 12.1272 5.81C11.8922 5.36 11.5947 4.955 11.2347 4.595C10.8747 4.235 10.4672 3.9375 10.0122 3.7025C9.55722 3.4675 9.07972 3.31 8.57972 3.23C8.46972 3.21 8.36472 3.2325 8.26472 3.2975C8.16472 3.3625 8.10472 3.455 8.08472 3.575C8.06472 3.695 8.08722 3.8025 8.15222 3.8975C8.21722 3.9925 8.30972 4.05 8.42972 4.07ZM15.3147 7.115C15.1747 6.285 14.9122 5.5025 14.5272 4.7675C14.1422 4.0325 13.6497 3.365 13.0497 2.765C12.4497 2.165 11.7822 1.6725 11.0472 1.2875C10.3122 0.9025 9.52972 0.64 8.69972 0.5C8.58972 0.48 8.48472 0.505 8.38472 0.575001C8.28472 0.645 8.22472 0.7375 8.20472 0.8525C8.18472 0.967501 8.20972 1.075 8.27972 1.175C8.34972 1.275 8.44472 1.335 8.56472 1.355C9.29472 1.475 9.99222 1.7075 10.6572 2.0525C11.3222 2.3975 11.9222 2.835 12.4572 3.365C12.9922 3.895 13.4297 4.49 13.7697 5.15C14.1097 5.81 14.3447 6.51 14.4747 7.25C14.4847 7.35 14.5297 7.435 14.6097 7.505C14.6897 7.575 14.7847 7.61 14.8947 7.61H14.9697C15.0797 7.59 15.1697 7.53 15.2397 7.43C15.3097 7.33 15.3347 7.225 15.3147 7.115Z" fill="#141570"/>
</g>
<defs>
<clipPath id="clip0_38_21">
<rect width="15" height="15" fill="white" transform="matrix(1 0 0 -1 0.359863 15.5)"/>
</clipPath>
</defs>
</svg>
